<svg width="1280" height="420" viewBox="0 0 1280 420" xmlns="http://www.w3.org/2000/svg" role="img" aria-label="Proton Command Center — launch options, DLSS, shaders and benchmarks for Steam on Linux">
  <defs>
    <radialGradient id="vign" cx="30%" cy="20%" r="110%">
      <stop offset="0%" stop-color="#131a22"/>
      <stop offset="55%" stop-color="#0e1116"/>
      <stop offset="100%" stop-color="#090c10"/>
    </radialGradient>
    <linearGradient id="barfill" x1="0" y1="0" x2="1" y2="0">
      <stop offset="0%" stop-color="#f5a623"/>
      <stop offset="100%" stop-color="#ffc95e"/>
    </linearGradient>
    <filter id="glow" x="-120%" y="-120%" width="340%" height="340%">
      <feGaussianBlur stdDeviation="5" result="b"/>
      <feMerge><feMergeNode in="b"/><feMergeNode in="SourceGraphic"/></feMerge>
    </filter>
    <filter id="softshadow" x="-20%" y="-20%" width="140%" height="140%">
      <feDropShadow dx="0" dy="10" stdDeviation="18" flood-color="#000" flood-opacity="0.55"/>
    </filter>
    <clipPath id="cardclip"><rect x="0" y="0" width="520" height="292" rx="16"/></clipPath>
  </defs>

  <!-- backdrop -->
  <rect width="1280" height="420" fill="url(#vign)"/>
  <!-- faint grid -->
  <g stroke="#1a222c" stroke-width="1" opacity="0.5">
    <path d="M0 105H1280M0 210H1280M0 315H1280"/>
    <path d="M160 0V420M320 0V420M480 0V420M640 0V420M800 0V420M960 0V420M1120 0V420"/>
  </g>

  <!-- ===== left: wordmark ===== -->
  <g font-family="ui-monospace,'JetBrains Mono','Cascadia Code',Menlo,monospace">
    <!-- status rail lights -->
    <g filter="url(#glow)">
      <circle cx="84"  cy="96" r="7" fill="#4da3ff"/>
      <circle cx="112" cy="96" r="7" fill="#4fd68b"/>
      <circle cx="140" cy="96" r="7" fill="#f5a623"/>
      <circle cx="168" cy="96" r="7" fill="#b57bee"/>
    </g>
    <text x="196" y="101" font-size="13" fill="#5b6673" letter-spacing="1">launch · dlss · cache · compiled</text>

    <text x="78" y="168" font-size="58" font-weight="700" fill="#eceff1" letter-spacing="2">PROTON</text>
    <text x="78" y="222" font-size="34" font-weight="700" fill="#f5a623" letter-spacing="6">COMMAND CENTER</text>

    <text x="80" y="266" font-size="16.5" fill="#9aa5b1">Your Steam library, tuned from one place —</text>
    <text x="80" y="290" font-size="16.5" fill="#9aa5b1">launch options · Proton picks · DLSS swaps · shader precompile · benchmarks</text>

    <!-- install chip -->
    <rect x="78" y="318" width="378" height="42" rx="9" fill="#12171d" stroke="#232c35"/>
    <text x="96" y="345" font-size="16" fill="#4fd68b">$</text>
    <text x="114" y="345" font-size="16" fill="#d7dde3">paru -S proton-command-center</text>
    <rect x="470" y="318" width="186" height="42" rx="9" fill="none" stroke="#232c35"/>
    <text x="486" y="344" font-size="13.5" fill="#8a94a0">Arch · CachyOS · stdlib only</text>
  </g>

  <!-- ===== right: mini UI card ===== -->
  <g transform="translate(696,64) rotate(-2)" filter="url(#softshadow)">
    <g clip-path="url(#cardclip)">
      <rect width="520" height="292" rx="16" fill="#12171d"/>
      <rect width="520" height="292" rx="16" fill="none" stroke="#28323d"/>

      <!-- titlebar -->
      <rect width="520" height="40" fill="#0f1419"/>
      <circle cx="24" cy="20" r="5.5" fill="#38424d"/>
      <circle cx="44" cy="20" r="5.5" fill="#38424d"/>
      <circle cx="64" cy="20" r="5.5" fill="#38424d"/>
      <text x="260" y="25" text-anchor="middle" font-family="ui-monospace,Menlo,monospace" font-size="13" fill="#6b7784">localhost:8686</text>

      <!-- game row -->
      <rect x="20" y="58" width="52" height="70" rx="6" fill="#1b232c"/>
      <path d="M30 112 L46 84 L58 104 L64 96 L70 112 Z" fill="#2c3742"/>
      <circle cx="40" cy="76" r="5" fill="#2c3742"/>
      <g font-family="ui-monospace,Menlo,monospace">
        <text x="86" y="80" font-size="16" fill="#eceff1" font-weight="600">Shadow of the Tomb Raider</text>
        <g filter="url(#glow)">
          <circle cx="92"  cy="100" r="5" fill="#4da3ff"/>
          <circle cx="112" cy="100" r="5" fill="#4fd68b"/>
          <circle cx="132" cy="100" r="5" fill="#f5a623"/>
          <circle cx="152" cy="100" r="5" fill="#38424d"/>
        </g>
        <text x="168" y="104" font-size="12" fill="#5b6673">compiling…</text>

        <!-- DLSS chip -->
        <rect x="368" y="60" width="132" height="26" rx="13" fill="#12251a" stroke="#25573a"/>
        <text x="382" y="77" font-size="12.5" fill="#4fd68b">DLSS 4 · 310.2.1</text>
        <rect x="368" y="94" width="132" height="24" rx="12" fill="#241c10" stroke="#5c4416"/>
        <text x="381" y="110" font-size="11.5" fill="#f5a623">update available ↑</text>
      </g>

      <!-- compile heartbeat -->
      <g font-family="ui-monospace,Menlo,monospace">
        <text x="22" y="160" font-size="13" fill="#9aa5b1">Precompiling shaders (Fossilize)</text>
        <rect x="20" y="172" width="480" height="12" rx="6" fill="#1b232c"/>
        <rect x="20" y="172" width="293" height="12" rx="6" fill="url(#barfill)"/>
        <circle cx="313" cy="178" r="7" fill="#ffc95e" filter="url(#glow)"/>
        <text x="22" y="206" font-size="12.5" fill="#8a94a0">steam_pipeline.foz (1/2) — 14m 32s, 61% of file</text>
      </g>

      <!-- launch string -->
      <g font-family="ui-monospace,Menlo,monospace">
        <rect x="20" y="226" width="480" height="44" rx="9" fill="#0f1419" stroke="#232c35"/>
        <text x="36" y="253" font-size="13" fill="#4da3ff">PROTON_ENABLE_WAYLAND=1 <tspan fill="#b57bee">mangohud</tspan> <tspan fill="#d7dde3">gamemoderun %command%</tspan></text>
      </g>
    </g>
  </g>

  <!-- accent underline -->
  <rect x="78" y="238" width="150" height="3" rx="1.5" fill="#f5a623" opacity="0.9"/>
</svg>
